<svg xmlns="http://www.w3.org/2000/svg" width="2564.4" height="1458.02" viewBox="0 0 2564.4 1458.02" fill="none">
  <g>
    <path id="AAA" d="M1118.62,705.05l17.95-.45.74-7.57-.47-67.53,155.95-46.41,316.59-104.74.74,9.35,9.05,5.93,139.6-51.18,183.22,90.5-127.74,48.07-144.87,58.9-250.5,95.39-174.32,64.68-162.75-80,36.79-14.95Z" fill="#F5F5F5" stroke="#E0E0E0" stroke-width="0.1" stroke-miterlimit="1"/>
    <path id="BBB" d="M1818.67,591.44l158.64,74.77-368.42,152.44-275.65,105.51-.89,26.48-60.38-31.53-3.81-99.82-8.53-1.88-.22-7,111.86-43.83,305.42-114.73,141.98-60.41Z" fill="#F5F5F5" stroke="#E0E0E0" stroke-width="0.1" stroke-miterlimit="1"/>
    <path id="BBB" d="M1965.52,532.93l-79.82-37.68,202.66-76.26,341.82,149.54-69.13,26.41v65.57l-187.52,78.93-85.16-39.76-120.47-52.52-133.52-61.42,131.15-52.82Z" fill="#F5F5F5" stroke="#E0E0E0" stroke-width="0.1" stroke-miterlimit="1"/>
    <path id="CCC" d="M1669.4,808.58l324.01-138.86,163.79,78.04-23.14,8.31,246.27,114.53-286.33,128.48-424.6-184.85v-5.64Z" fill="#F5F5F5" stroke="#E0E0E0" stroke-width="0.1" stroke-miterlimit="1"/>
    <path id="DDD" d="M1369.42,929.94l285.74-115.72,1.48,4.75,261.7,116.91-39.46,16.62v11.87l-10.39-2.37-317.19,136.49-181.89-98.51v-70.02Z" fill="#F5F5F5" stroke="#E0E0E0" stroke-width="0.1" stroke-miterlimit="1"/>
    <path id="EEE" d="M2055.13,1114.05l-197.81,95.74-157.06-69.63-29.28,10.68-.4,75.02-106.67-37.68-.74-61.12-.45-14.69,319.91-146.28,9.49,1.98v-11.08l37.58-17.01,168.53,77.94-41.14,17.41-.79,33.23-1.19,45.5Z" fill="#F5F5F5" stroke="#E0E0E0" stroke-width="0.1" stroke-miterlimit="1"/>
  </g>
</svg>