<?xml version="1.0" encoding="UTF-8"?>
<svg id="Overlay" data-name="Overlay" xmlns="http://www.w3.org/2000/svg" width="2564.4" height="1458.02" viewBox="0 0 2564.4 1458.02">
  <polygon id="a6" data-name="a6" points="2055.13 1114.05 1857.32 1209.79 1700.26 1140.16 1670.98 1150.84 1670.59 1225.86 1563.92 1188.18 1563.18 1127.06 1562.73 1112.37 1882.64 966.09 1892.13 968.07 1892.13 956.99 1929.72 939.98 2098.25 1017.91 2057.11 1035.32 2056.32 1068.55 2055.13 1114.05" style="fill: #6d6e71;"/>
  <polygon id="a5" data-name="a5" points="1369.42 999.96 1551.31 1098.47 1868.5 961.98 1878.88 964.36 1878.88 952.49 1918.34 935.87 1656.64 818.97 1655.16 814.22 1369.42 929.94 1369.42 999.96" style="fill: #6d6e71;"/>
  <polygon id="a4" data-name="a4" points="1669.4 814.22 2094 999.07 2380.33 870.59 2134.06 756.06 2157.2 747.75 1993.41 669.72 1669.4 808.58 1669.4 814.22" style="fill: #6d6e71;"/>
  <polygon id="a3" data-name="a3" points="1834.37 585.75 1967.9 647.17 2088.36 699.69 2173.52 739.45 2361.04 660.52 2361.04 594.95 2430.18 568.54 2088.36 418.99 1885.71 495.25 1965.52 532.93 1834.37 585.75" style="fill: #6d6e71;"/>
  <polygon id="a2" data-name="a2" points="1818.67 591.44 1977.32 666.21 1608.9 818.64 1333.25 924.15 1332.36 950.63 1271.98 919.11 1268.17 819.29 1259.64 817.41 1259.42 810.4 1371.28 766.57 1676.69 651.84 1818.67 591.44" style="fill: #6d6e71;"/>
  <polygon id="a1" data-name="a1" points="1081.83 720 1244.58 800 1418.9 735.32 1669.4 639.92 1814.27 581.03 1942.01 532.96 1758.79 442.46 1619.18 493.64 1610.13 487.71 1609.39 478.36 1292.8 583.1 1136.85 629.51 1137.32 697.04 1136.58 704.61 1118.62 705.05 1081.83 720" style="fill: #6d6e71;"/>
</svg>