<?xml version="1.0" encoding="UTF-8"?>
<svg id="Layer_1" xmlns="http://www.w3.org/2000/svg" xmlns:xlink="http://www.w3.org/1999/xlink" version="1.1" viewBox="0 0 5286 968">
  <!-- Generator: Adobe Illustrator 30.2.1, SVG Export Plug-In . SVG Version: 2.1.1 Build 1)  -->
  <defs>
    <style>
      .st0, .st1 {
        isolation: isolate;
      }

      .st1 {
        fill: #6d6e71;
        opacity: .5;
      }
    </style>
  </defs>
  <g id="Layer_2">
    <image class="st0" width="5286" height="968" xlink:href="48port_switch-1.png"/>
  </g>
  <path id="port1" class="st1" d="M514.8,591.4l1-13.8,13-.5.3-9.5h51.9l.6,11.3h14l1.5,14h25.2l2.7,84.6h-134.4l-1.8-84.6,26.1-1.4h0Z"/>
  <path id="port3" class="st1" d="M668,591.4l1-13.8,13-.5.3-9.5h51.9l.6,11.3h14l1.5,14h25.2l2.7,84.6h-134.4l-1.8-84.6,26.1-1.4h0Z"/>
  <path id="port5" class="st1" d="M821.4,592.6l1-13.8,13-.5.3-9.5h51.9l.6,11.3h14l1.5,14h25.2l2.7,84.6h-134.4l-1.8-84.6,26.1-1.4h0Z"/>
  <path id="port7" class="st1" d="M972.8,592.6l1-13.8,13-.5.3-9.5h51.9l-.4,11.3h14.9l1.5,14h25.2l2.7,84.6h-134.4l-1.8-84.6,26.1-1.4h0Z"/>
  <path id="port9" class="st1" d="M1124.3,592.6l.9-13.8,13-.5.3-9.5h51.9l.6,11.3h13.9l1.5,14h25.2l2.7,84.6h-134.4l-1.8-84.6,26.1-1.4h0Z"/>
  <path id="port11" class="st1" d="M1275.8,592.6l.9-13.8,13-.5.3-9.5h51.9l.6,11.3h13.9l1.5,14h25.2l2.7,84.6h-134.4l-1.8-84.6,26.1-1.4h0Z"/>
  <path id="port13" class="st1" d="M1467.9,593.2l.9-13.8,13-.5.3-9.5h51.9l.6,11.3h13.9l1.5,14h25.2l2.7,84.6h-134.4l-1.8-84.6,26.1-1.4h0Z"/>
  <path id="port15" class="st1" d="M1621.3,593.2l.9-13.8,13-.5.3-9.5h51.9l.6,11.3h13.9l1.5,14h25.2l2.7,84.6h-134.4l-1.8-84.6,26.1-1.4h0Z"/>
  <path id="port17" class="st1" d="M1769.4,593.2l.9-13.8,13-.5.3-9.5h51.9l.6,11.3h13.9l1.5,14h25.2l2.7,84.6h-134.4l-1.8-84.6,26.1-1.4h0Z"/>
  <path id="port19" class="st1" d="M1919.2,596l.9-13.8,13-.5.3-9.5h51.9l-.4,11.3h14.9l1.5,14h25.2l2.7,84.6h-134.4l-1.8-84.6,26.1-1.4h0Z"/>
  <path id="port21" class="st1" d="M2068.9,593.2l.9-13.8,13-.5.3-9.5h51.9l.6,11.3h13.9l1.5,14h25.2l2.7,84.6h-134.4l-1.8-84.6,26.1-1.4h0Z"/>
  <path id="port23" class="st1" d="M2220.6,596l.9-13.8,13-.5.3-9.5h51.9l.6,11.3h13.9l1.5,14h25.2l2.7,84.6h-134.4l-1.8-84.6,26.1-1.4h0Z"/>
  <path id="port25" class="st1" d="M2410.2,595.4l.9-13.8,13-.5.3-9.5h51.9l.6,11.3h13.9l1.5,14h25.2l2.7,84.6h-134.4l-1.8-84.6,26.1-1.4h0Z"/>
  <path id="port27" class="st1" d="M2559.2,595.4l.9-13.8,13-.5.3-9.5h51.9l.6,11.3h13.9l1.5,14h25.2l2.7,84.6h-134.4l-1.8-84.6,26.1-1.4h0Z"/>
  <path id="port29" class="st1" d="M2710.4,595.4l.9-13.8,13-.5.3-9.5h51.9l.6,11.3h13.9l1.5,14h25.2l2.7,84.6h-134.4l-1.8-84.6,26.1-1.4h0Z"/>
  <path id="port31" class="st1" d="M2859.6,595.4l.9-13.8,13-.5.3-9.5h51.9l-.4,11.3h14.9l1.5,14h25.2l2.7,84.6h-134.4l-1.8-84.6,26.1-1.4h0Z"/>
  <path id="port33" class="st1" d="M3008.8,595.4l.9-13.8,13-.5.3-9.5h51.9l.6,11.3h13.9l1.5,14h25.2l2.7,84.6h-134.4l-1.8-84.6,26.1-1.4h0Z"/>
  <path id="port35" class="st1" d="M3158.9,595.4l.9-13.8,13-.5.3-9.5h51.9l.6,11.3h13.9l1.5,14h25.2l2.7,84.6h-134.4l-1.8-84.6,26.1-1.4h0Z"/>
  <path id="port37" class="st1" d="M3347,592l.9-13.8,13-.5.3-9.5h51.9l.6,11.3h13.9l1.5,14h25.2l2.7,84.6h-134.4l-1.8-84.6,26.1-1.4h0Z"/>
  <path id="port39" class="st1" d="M3497.9,592l.9-13.8,13-.5.3-9.5h51.9l.6,11.3h13.9l1.5,14h25.2l2.7,84.6h-134.4l-1.8-84.6,26.1-1.4h0Z"/>
  <path id="port41" class="st1" d="M3647.3,593.2l.9-13.8,13-.5.3-9.5h51.9l.6,11.3h13.9l1.5,14h25.2l2.7,84.6h-134.4l-1.8-84.6,26.1-1.4h0Z"/>
  <path id="port43" class="st1" d="M3796.6,593.2l.9-13.8,13-.5.3-9.5h51.9l-.4,11.3h14.9l1.5,14h25.2l2.7,84.6h-134.4l-1.8-84.6,26.1-1.4h0Z"/>
  <path id="port45" class="st1" d="M3947.9,591.6l.9-13.8,13-.5.3-9.5h51.9l.6,11.3h13.9l1.5,14h25.2l2.7,84.6h-134.4l-1.8-84.6,26.1-1.4h0Z"/>
  <path id="port47" class="st1" d="M4099.1,589.2l1-13.8,13-.5.3-9.5h51.9l.6,11.3h14l1.5,14h25.2l2.7,84.6h-134.4l-1.8-84.6,26.1-1.4h0Z"/>
  <path id="port48" class="st1" d="M4178.3,810.3l-1,13.8-13,.5-.3,9.5h-51.9l-.6-11.3h-14l-1.5-14h-25.2l-2.7-84.6h134.4l1.8,84.6-26.1,1.4h0Z"/>
  <path id="port46" class="st1" d="M4028.1,810.3l-.9,13.8-13,.5-.3,9.5h-51.9l-.6-11.3h-13.9l-1.5-14h-25.2l-2.7-84.6h134.4l1.8,84.6-26.1,1.4h0Z"/>
  <path id="port44" class="st1" d="M3876.4,808.3l-.9,13.8-13,.5-.3,9.5h-51.9l-.6-11.3h-13.9l-1.5-14h-25.2l-2.7-84.6h134.4l1.8,84.6-26.1,1.4h0Z"/>
  <path id="port42" class="st1" d="M3726.6,810.3l-.9,13.8-13,.5-.3,9.5h-51.9l.4-11.3h-14.9l-1.5-14h-25.2l-2.7-84.6h134.4l1.8,84.6-26.1,1.4h0Z"/>
  <path id="port40" class="st1" d="M3577.9,810.3l-.9,13.8-13,.5-.3,9.5h-51.9l-.6-11.3h-13.9l-1.5-14h-25.2l-2.7-84.6h134.4l1.8,84.6-26.1,1.4h0Z"/>
  <path id="port38" class="st1" d="M3429.1,810.3l-.9,13.8-13,.5-.3,9.5h-51.9l-.6-11.3h-13.9l-1.5-14h-25.2l-2.7-84.6h134.4l1.8,84.6-26.1,1.4h0Z"/>
  <path id="port36" class="st1" d="M3237,811l-.9,13.8-13,.5-.3,9.5h-51.9l-.6-11.3h-13.9l-1.5-14h-25.2l-2.7-84.6h134.4l1.8,84.6-26.1,1.4h0Z"/>
  <path id="port34" class="st1" d="M3090.2,811l-.9,13.8-13,.5-.3,9.5h-51.9l-.6-11.3h-13.9l-1.5-14h-25.2l-2.7-84.6h134.4l1.8,84.6-26.1,1.4h0Z"/>
  <path id="port32" class="st1" d="M2941.5,811l-.9,13.8-13,.5-.3,9.5h-51.9l-.6-11.3h-13.9l-1.5-14h-25.2l-2.7-84.6h134.4l1.8,84.6-26.1,1.4h0Z"/>
  <path id="port30" class="st1" d="M2792.4,810.3l-.9,13.8-13,.5-.3,9.5h-51.9l.4-11.3h-14.9l-1.5-14h-25.2l-2.7-84.6h134.4l1.8,84.6-26.1,1.4h0Z"/>
  <path id="port28" class="st1" d="M2639.4,811l-.9,13.8-13,.5-.3,9.5h-51.9l-.6-11.3h-13.9l-1.5-14h-25.2l-2.7-84.6h134.4l1.8,84.6-26.1,1.4h0Z"/>
  <path id="port26" class="st1" d="M2491.1,811l-.9,13.8-13,.5-.3,9.5h-51.9l-.6-11.3h-13.9l-1.5-14h-25.2l-2.7-84.6h134.4l1.8,84.6-26.1,1.4h0Z"/>
  <path id="port24" class="st1" d="M2300.7,807.5l-.9,13.8-13,.5-.3,9.5h-51.9l-.6-11.3h-13.9l-1.5-14h-25.2l-2.7-84.6h134.4l1.8,84.6-26.1,1.4h0Z"/>
  <path id="port22" class="st1" d="M2153,807.5l-.9,13.8-13,.5-.3,9.5h-51.9l-.6-11.3h-13.9l-1.5-14h-25.2l-2.7-84.6h134.4l1.8,84.6-26.1,1.4h0Z"/>
  <path id="port20" class="st1" d="M2003.2,811l-.9,13.8-13,.5-.3,9.5h-51.9l-.6-11.3h-13.9l-1.5-14h-25.2l-2.7-84.6h134.4l1.8,84.6-26.1,1.4h0Z"/>
  <path id="port12" class="st1" d="M1384.2,725l1.8,84.6-26.1,1.4-.9,13.8-13,.6-.3,9.5h-51.9l-.6-11.3h-13.9l-1.5-14h-25.2l-2.7-84.6h134.4,0Z"/>
  <path id="port18" class="st1" d="M1879.6,809.6l-26.1,1.3-.9,13.8-13,.5-.3,9.5h-51.9l.4-11.3h-14.9l-1.5-13.9h-25.2l-2.7-84.6h134.4l1.8,84.6h0Z"/>
  <path id="port14" class="st1" d="M1576.3,721.6l1.8,84.6-26.1,1.3-.9,13.8-13,.5-.3,9.5h-51.9l-.6-11.3h-13.9l-1.5-13.9h-25.2l-2.7-84.6h134.4,0Z"/>
  <path id="port16" class="st1" d="M1726.8,725.1l1.8,84.6-26.1,1.3-.9,13.8-13,.5-.3,9.5h-51.9l-.6-11.3h-13.9l-1.5-13.9h-25.2l-2.7-84.6h134.4,0Z"/>
  <path id="port10" class="st1" d="M1208.9,810.9l-.9,13.8-13,.5-.3,9.5h-51.9l-.6-11.3h-13.9l-1.5-14h-25.2l-2.7-84.6h134.4l1.8,84.6-26.1,1.4h0Z"/>
  <path id="port8" class="st1" d="M1059.6,809.7l-.9,13.8-13,.5-.3,9.5h-51.9l-.6-11.3h-14l-1.5-14h-25.2l-2.7-84.6h134.4l1.8,84.6-26.1,1.4h0Z"/>
  <path id="port6" class="st1" d="M908.2,809.7l-1,13.8-13,.5-.3,9.5h-51.9l.4-11.3h-15l-1.5-14h-25.2l-2.7-84.6h134.4l1.8,84.6-26.1,1.4h0Z"/>
  <path id="port4" class="st1" d="M756,811.3l-1,13.8-13,.5-.3,9.5h-51.9l-.6-11.3h-14l-1.5-14h-25.2l-2.7-84.6h134.4l1.8,84.6-26.1,1.4h0Z"/>
  <path id="port2" class="st1" d="M598.8,809.7l-1,13.8-13,.5-.3,9.5h-51.9l-.6-11.3h-14l-1.5-14h-25.2l-2.7-84.6h134.4l1.8,84.6-26.1,1.4h0Z"/>
</svg>