<?xml version="1.0" encoding="UTF-8"?>
<svg id="Layer_2" data-name="Layer 2" xmlns="http://www.w3.org/2000/svg" viewBox="0 0 102.17 116.23">
  <defs>
    <style>
      .cls-1 {
        fill: #0a1114;
      }

      .cls-2 {
        fill: #09161a;
      }

      .cls-3 {
        fill: #586972;
      }

      .cls-4 {
        fill: #a0b4bd;
      }

      .cls-5 {
        fill: #1c313b;
      }

      .cls-6 {
        fill: #92a6ad;
      }

      .cls-7 {
        fill: #09161b;
      }

      .cls-8 {
        fill: #96abb4;
      }

      .cls-9 {
        fill: #0a1215;
      }

      .cls-10 {
        fill: #0c2832;
      }

      .cls-11 {
        fill: #73ccd4;
      }

      .cls-12 {
        fill: #a2b8bf;
      }

      .cls-13 {
        fill: #71ccd4;
      }

      .cls-14 {
        fill: #7dcfd8;
      }

      .cls-15 {
        fill: #5f727a;
      }

      .cls-16 {
        fill: #667a81;
      }

      .cls-17 {
        fill: #182e38;
      }

      .cls-18 {
        fill: #283c48;
      }

      .cls-19 {
        fill: #1f343f;
      }

      .cls-20 {
        fill: #223742;
      }

      .cls-21 {
        fill: #1d99a7;
      }

      .cls-22 {
        fill: #28acbb;
      }

      .cls-23 {
        fill: #27abbb;
      }

      .cls-24 {
        fill: #82d1da;
      }

      .cls-25 {
        fill: #a0b6bf;
      }

      .cls-26 {
        fill: #475f6a;
      }

      .cls-27 {
        fill: #83d1da;
      }

      .cls-28 {
        fill: #a4bac2;
      }

      .cls-29 {
        fill: #293d48;
      }

      .cls-30 {
        fill: #0a1216;
      }

      .cls-31 {
        fill: #697d85;
      }

      .cls-32 {
        fill: #0b2129;
      }

      .cls-33 {
        fill: #9db5bd;
      }

      .cls-34 {
        fill: #aac5d2;
      }

      .cls-35 {
        fill: #435965;
      }

      .cls-36 {
        fill: #0d1e26;
      }

      .cls-37 {
        fill: #a7bcc5;
      }

      .cls-38 {
        fill: #5c6d76;
      }

      .cls-39 {
        fill: #76cdd7;
      }

      .cls-40 {
        fill: #091519;
      }

      .cls-41 {
        fill: #63757d;
      }

      .cls-42 {
        fill: #273b46;
      }

      .cls-43 {
        fill: #3c505c;
      }

      .cls-44 {
        fill: #7ccfd7;
      }

      .cls-45 {
        fill: #60727b;
      }

      .cls-46 {
        fill: #090f12;
      }

      .cls-47 {
        fill: #94aab3;
      }

      .cls-48 {
        fill: #091419;
      }

      .cls-49 {
        fill: #657980;
      }

      .cls-50 {
        fill: #5e7079;
      }

      .cls-51 {
        fill: #667a82;
      }

      .cls-52 {
        fill: #95acb5;
      }

      .cls-53 {
        fill: #5c6e76;
      }

      .cls-54 {
        fill: #5d6f78;
      }

      .cls-55 {
        fill: #5c6e77;
      }

      .cls-56 {
        fill: #a0b7be;
      }

      .cls-57 {
        fill: #1d99a6;
      }

      .cls-58 {
        fill: #1e9ba8;
      }

      .cls-59 {
        fill: #9db5bc;
      }

      .cls-60 {
        fill: #0a1c24;
      }

      .cls-61 {
        fill: #657880;
      }

      .cls-62 {
        fill: #28acbc;
      }

      .cls-63 {
        fill: #a1b9c4;
      }

      .cls-64 {
        fill: #7aced7;
      }

      .cls-65 {
        fill: #667981;
      }

      .cls-66 {
        fill: #a1b5bd;
      }
    </style>
  </defs>
  <g id="Layer_1-2" data-name="Layer 1">
    <g id="Generative_Object" data-name="Generative Object">
      <g>
        <path class="cls-7" d="M65.95,3.69c2.22.85,4.51,1.67,6.83,2.12.96.56,2,.76,3.15.97.91.32,2.27.33,3.08,1.05,2.72,2.45,5.24,4.98,7.42,7.88,2.05,2.73,3.37,5.79,5.23,8.63.24.37.48,1.14.91,1.19.91.1,1.68-.27,2.4-.27h1.76s5.29,4.8,5.29,4.8c0,.44.19.86.16,1.25l-.73,8.45c-.69.25-1.4.3-2.35.28l-.76,10.04,2.2,1.62-1.44,19.03-4.25.42-1.16,15.43-8.5.58-.59,8.22c1.52-.06,2.89-.05,4.34-.28l4.46-.18c2.48,3.01,2.66,1.45,2.42,4.59-.12,1.58-.05,3.04-.42,4.59l-10.99.85-.45,5.54c-11.45,4.06-26.07,6.21-38.17,5.63-10.34-.5-21.57-2.32-30.56-7.77-.1-1.95.07-3.68.2-5.53l.65-8.74-4.36.27c-.72.04-1.19-.41-1.74-.85l-3.35-2.71.64-10.12c.05-.74.26-1.4.11-2.12l-4.44-3.6.48-7.61,4.94-.48.96-12.99c-4.09-1.61-6.31-4.82-9.32-8.05l9.51-21.27,3.39-6.56c5.29-3.45,10.12-5.61,15.41-9.25,5.68-3.92,7.87-4.76,14.55-6.37l9.91-2.4,13.19,3.69Z"/>
        <path class="cls-18" d="M60.92,4.47c-.44.51,1.77.66,2.33.92,1.14.54,2.29,1.09,3.66,1.46l5.12,1.41c.4.11,4.19,1.21,4.01.55.39.13.96.02,1.37.49-1.36,1.45-2.92,2.91-3.9,4.74-1.24,2.31-1.8,4.91-2.16,7.5,0-.01.45,4.72.27,5.44-.33.06-.7.7-.98.72-1.51.11-2.92.27-4.52.52l.73-6.81c.05-.5.28-.94-.26-1.43-.45-.4-.74-.96-1.13-1.37l-2.59-2.75-11.86,1.86c-1.57.25-2.96.4-4.49.87-3.69,1.12-7.44,1.12-11.28.82.35.34,1.05.27,1.42.35-.63,1.44-.41,2.09-.66,3.5-.1.58-.28,1.53.22,2,.31.29,1.01.57,1.37.63.02.6.73.81,1.23,1.27-.65,1.45-.81,2.99-.36,4.47-1.23.24-5.48.49-6.04,1.03-.19.18-.31.43-.54.5-.16.05-.3-.63-.47-.61l-7.59.89c-1.24.15-2.33.28-3.48.21.14-.57-.25-1.14-.27-1.79s.19-1.26-.29-1.77c-.16.48.08.96-.13,1.38-1.14-.39-1.34,1.76-1.3,2.36-1.11.23-2.22.61-3.43.66-.4.02-.82.35-.88-.37-.02-.23.03-.32.33-.65.41-.45.13-1.22.13-1.82v-11.07s1.79-1.25,1.79-1.25c.78-.55,1.99-1.84,2.51-1.49l.45.31c.09.06.28-.22.48-.32,1.72-.88,3.19-1.88,4.6-3.17.19-.17.89-.44.52-.65-.39-.23-.33-.58-.47-.79l2.53-1.7c-.22,2.61,1.32,4.84,3.67,6.01,1.98.98,4.2,1.1,6.44,1.14,6.49.11,11.74-2.96,16.18-7.53,2.14-2.2,3.79-4.58,4.73-7.53,1.1.5,2.06.57,3,.84Z"/>
        <path class="cls-21" d="M73.59,30.73l-6.04,9.72-2.45,4.02,7.39,13.93-6.86.79-4.7-9.79-2.09-4.09-1.19,12.62c-.48-.19-.05,1.24-.31,1.75-.13.27-2.61.38-3.24.42s-1.37.41-2.05,0l1.55-20.19.53-7.64,5.11-.55c.39-.37-.5,4.06.13,3.85-.25,1.6-.14,3.25-.49,4.83-.13.57-.63,1.39-.05,2.21,1.24-1.12,2.1-2.44,3.03-3.77l4.82-6.86c.31-.45.63-1.15,1.23-1.22l5.6-.67c.11.29-.04.47.07.63Z"/>
        <path class="cls-21" d="M93.97,32.08l-.2,1.59-10.75,1.17c-.21,1.23-.22,2.45-.35,3.63-.52-.86-.39,2.49-.35,2.73,1.33-.01,2.57-.11,3.81-.28l4.31-.59c-.09.19-.39,3.61.02,3.22l-.2,1.93-8.26.88c-.26.58.14,1.24-.25,1.65-.31.08-.17.4-.22.79l-.33,2.57c-.03.26-.34.66-.2.85.19.25.62.39.91.36l10.84-1.16c.34.81-.56,4.66.04,4.77,0,.35-.36.48-.78.52l-4.67.45c-.84.08-1.81-.11-2.93.01l-2.41.27-2.29.22-2.02.15c-.66.05-1.33.19-2.1.17l.26-4.31c.09-1.41.51-2.79.35-4.3-.09-.87.31-1.72.34-2.57.11-2.84.42-5.61.66-8.5l.7-8.47,8.43-.97,4.95-.39c.8-.06,1.59-.31,2.53-.24.45.03-.51,3.55.15,3.84Z"/>
        <path class="cls-58" d="M28.26,37.91c-.17.88-.26,1.76-.57,2.76l-8.94.99c-.21.84-.08,1.76-.38,2.46-.49-.11,0,.92-.34,1.84-.22.6.02,1.28-.1,2.05.6.18,1.09.15,1.62.09,2.04-.24,3.99-.47,6.12-.61l-1.12,4.33c-.06.24-3.47.15-2.51.66l-4.41.45-.67,8.47c-.15-.07-.35.02-.36.14,0,.1.01.33,0,.46l-.21,2.37c-1.99-.06-3.59.48-5.42.3-.06-1.44.16-2.5.27-3.86l1.91-23.58,14.7-1.5c1.21-.12-.41,1.75.41,2.18Z"/>
        <path class="cls-61" d="M31.96,66.49c-.51.33,2.58.17,2.65.16.12-.46,2.44.23,2.04-.52.95.06,1.74-.21,2.73-.24l-.4,5.4-4.09.49-.04-1.21-3.99.3-.3,4.01c.71-.08,5.2-.42,5.27-.33,2.66,3.26,3.01.87,2.16,8.85-.54,1.05-1.63,1.81-2.33,2.8l-9.73,1.05c-1.55-2.02-.9-2.43-.91-4.89.56-.28,3.79-.46,3.84-.25l.15.63,4.9-.55.22-3.41c-2.09-.22-3.89.56-5.64.3-.9-1.04-2.13-2.23-2.64-3.48l.43-6.05c1.04-.8,1.71-2.03,2.83-2.71.87-.34,1.98-.21,2.86-.33Z"/>
        <path class="cls-65" d="M53.93,64.54c.1.36.57.17,1.13.15,0,.87.17,1.83-.05,2.69-.1.38-.25,2.69.09,2.4l-1.06,14.31c-1.41.09-2.71.39-4.18.31l.61-7.96c-1.71-.15-3.42.26-5.1.42l-.65,8.13-4.45.52c.21-.86-.23-1.82.22-2.5.37-.56.29-1.11.33-1.82l.17-2.6.21-3.21c0-.11.31-3.25-.1-2.87,0-.05.03-.15,0-.19.08,0,.27.04.35-.04.16-.95-.13-1.91.12-2.81.11-.39.25-2.7-.09-2.4.07-1.16.09-1.35.58-1.36-.09.58,2.99-.19,3.67,0,.22.56-.57,3.75.02,3.7-.09,1-.32,2.03-.13,3.06l4.93-.49.5-7.17c1.02-.07,1.94-.13,2.87-.25Z"/>
        <path class="cls-45" d="M18.54,71.15c.07.53-.17,1.18-.28,1.6l-3.77.42-1.24,15.27c-1.52.36-3.01.44-4.62.44l1.08-15.29-4.8.4.32-4.58,6.71-.59c.18.56,3.15-.2,4.24-.03.07-.1.02-.29.03-.36h.19c.36.44,1,.08,1.52.19,1.03.22-.03,2.45.62,2.53Z"/>
        <path class="cls-31" d="M90.09,60.66c.65.47,1.49.04,2.3.21.17,1.6-.36,1.83-.13,3.71-1.23.45-2.6.4-4.06.62l-1.13,15.56c-.4.08-4.35.74-4.31.25l.94-14.5c.02-.34-.04-.57-.24-.72-.19-.13-.43-.03-.73-.01l-3.57.25.29-4.46,10.66-.92Z"/>
        <path class="cls-29" d="M27.36,12.29c-.15-.78,0-1.34.72-1.83l2.24-1.53c-.51,1.94.29,3.84,2.01,4.94,1.62,1.03,3.4,1.19,5.26,1.2,2.74,0,5.2-.57,7.57-1.95,4.65-2.71,6.92-5.53,8.07-11.04,1.23.79,3.48.97,3.97,1.79-.63,2.89-2.6,4.83-4.46,7.02-3.8,4.47-8.74,7.15-14.56,7.37-2.39.09-4.58-.33-6.82-1.13s-3.55-2.48-4-4.84Z"/>
        <path class="cls-17" d="M82.72,26.33c0-.13-.05-.09-.03-.15.06-.15.21-.1.43-.07s.28-.48.1-.56c-1.33-.53-2.92-3.6-4.19-4.43-1.22-.79-1.78-2.19-2.84-3.16-1.47-1.34-1.62-2.36-2.73-2.83.83-2.11,2.73-3.91,5.18-4.29,1.46.02,7.81,8.2,8.45,9.23s.89,2.07,1.76,2.94c.57.56.98,1.6.88,2.42-1.16.69-2.72.56-4.1.66l-2.91.22Z"/>
        <path class="cls-20" d="M3.23,43.55c.34-.51-.19,1.21.64,1.21.73,0,1.27-2.51,1.07-2.01l1.9-4.79c.75-1.9,1.36-3.91,2.2-5.84.65-1.49,1.27-2.83,1.75-4.39.16-.51.7-.72.68-1.5-.02-.55.79-1.07.99-1.6.22-.57.4-1.14.83-1.45,0,.19.24.36.23.57-.29,3.66-.15,7.22.07,10.88-.73.27-1.38.03-1.96.14-.53.1-.55.76-.49,1.2.07.55-.21,1.03-.17,1.56.15,2.24-.2,7.56-.87,9.85-.59-.05-.89-.55-1.25-.9-1.07-1.06-2.09-2.08-3.21-3.05.26.48.36.99.56,1.44.73,1.63,2.57,2.62,3.46,4.3.44.83.04,1.94-.29,2.86l-5.68-4.53c-.25-.2-.93-.59-.87-1l.42-2.93Z"/>
        <path class="cls-51" d="M57.2,74.46c.47.2.02-1.51.33-2.6.07-.26.25-3.21-.11-2.85l.3-4.74,4.43-.36-1.42,19.32c-.03.45-3.92.72-4.31.48l.78-9.24Z"/>
        <path class="cls-42" d="M82.72,26.33l-2.77.17c-2.43.15-4.78.76-7.22.76-.3-.4-.11-.91-.14-1.4-.23-3.14-.48-8.08.87-10.71,1.12.46,1.27,1.48,2.73,2.83,1.06.97,1.62,2.37,2.84,3.16,1.27.82,2.85,3.9,4.19,4.43.19.07.14.59-.1.56s-.38-.08-.43.07c-.02.06.04.02.03.15Z"/>
        <path class="cls-62" d="M54.61,28.88l.61-9.65c-.51-.49,5.74-1.17,6.3-1.18,0,.92.02,1.72-.18,2.61-1.3.28-2.63.25-3.92.63-.29.08-.25,1.07.05,1.14l3.16-.35c.16.82-.14,1.55-.17,2.34l-3.21.44c-.03.5-.08.83,0,1.42l3.69-.62c-.02.95.08,1.66-.17,2.58-2.13.24-4.14.68-6.15.64Z"/>
        <path class="cls-22" d="M53.18,19.24l-.54,9.68c-.64.31-1.41.35-2.23.47l.13-3.88c-.78.07-1.5.12-2.34.32l-.36,3.81c-.7.16-1.39.3-2.09.16l.24-4.15.45-5.51,2.09-.32-.24,3.51c.89,0,1.6-.16,2.39-.31.19-1.31.36-2.41.33-3.54.69-.1,1.49-.26,2.17-.25Z"/>
        <path class="cls-50" d="M38.4,92.56c-.33,1.53-.09,2.96-.53,4.46-.1.36-1.13.42-1.47.26l.3-4.1c.08-1.06.13-2.27.42-3.29.22-.35,1.39-.43,1.63-.08.42.6.73,1.4,1.24,1.91l1.91-2.49c.34-.44,1.19-.08,1.68-.15l-.71,7.66c-.45.16-.97.16-1.61.11.16-1.59.35-3.04.34-4.66-.57.5-.88,1.28-1.34,1.87-.19.09-.71.12-.87,0-.35-.49-.53-1.11-1-1.47Z"/>
        <path class="cls-23" d="M39.89,26.65l.18-2.91-2.13.26c-.02-.4,0-.67.01-.91.02-.53.02-.99.25-1.45l6.39-1.15-.26,2.75c-.75.03-1.34.11-2.22.3l-.48,6.91c-.64.22-1.2.24-1.93.24l.09-2.7c.02-.5.21-.92.09-1.34Z"/>
        <path class="cls-55" d="M67.92,88.26l-.6,5.64c-.44-.08-1.14.13-1.52,0l-2.1-3.35-.45,3.89c-.5.11-.96.21-1.53.15l.65-7.48h1.61s1.91,3.51,1.91,3.51c.13-.42.02-.76.24-1,.25-1.05.26-1.51.39-2.71.46-.02.78-.02,1.18,0,.14.48-.23,1.05.21,1.34Z"/>
        <path class="cls-44" d="M93.97,32.08c-.66-.29.3-3.8-.15-3.84-.94-.07-1.73.18-2.53.24l-4.95.39-8.43.97-.7,8.47c-.24,2.89-.55,5.65-.66,8.5-.03.85-.43,1.7-.34,2.57.16,1.51-.27,2.89-.35,4.3l-.26,4.31c.77.02,1.44-.12,2.1-.17l2.02-.15,2.29-.22,2.41-.27c1.12-.12,2.09.07,2.93-.01-2.37.13-4.21.44-6.75.67l-2.28.2c-.95.09-1.99,0-3.07.37-.26-.76-.03-1.29.03-2.05l2.13-27.05,11.88-1.29,4.9-.45c.09,2.21-.23,2.86-.22,4.52Z"/>
        <path class="cls-35" d="M13.29,23.16c-.43.31-.61.88-.83,1.45-.2.53-1,1.06-.99,1.6.02.78-.53.99-.68,1.5-.48,1.56-1.1,2.91-1.75,4.39-.84,1.94-1.45,3.94-2.2,5.84l-1.9,4.79c.2-.5-.34,2.01-1.07,2.01-.83,0-.3-1.72-.64-1.21.09-.84.65-1.43.88-2.18.97-3.1,2.4-5.9,3.74-8.91l3.03-6.82,2.74-5.78c-.5,1.69.2,1.34-.32,3.3Z"/>
        <path class="cls-13" d="M28.26,37.91c-.82-.44.8-2.31-.41-2.18l-14.7,1.5-1.91,23.58c-.11,1.36-.34,2.42-.27,3.86,1.84.18,3.44-.36,5.42-.3l.21-2.37c.01-.13,0-.36,0-.46.01-.12.21-.21.36-.14.09.11-.03.19-.16.27l-.02,2.67c-1.17.53-2.43.27-3.57.46-.9.15-1.66.35-2.74.3l1.01-13.2,1.25-15.23,11.69-1.22c1.44-.15,2.79-.32,4.26-.39-.13,1.12-.25,1.98-.41,2.84Z"/>
        <path class="cls-53" d="M25.35,90.79c.21.41.81.11,1.19.18.67.16.43,2.04.24,2.53l-1.45.02c-.13-.39.02-.67-.08-1.14-.57.16-1.05.19-1.74.13l-.48,4.44c.8.11,1.4-.11,2.13-.18.05-.3-.14-.79.19-.96.43-.23.9-.18,1.32-.1.08.64.12,1.43-.22,1.99-.52.86-1.55.84-2.44.89-.37.02-1.82.48-2.32-.11-.21-.25-.3-.51-.27-.9l.46-5.45c.07-.87,1.18-1.08,1.9-1.16l1.58-.18Z"/>
        <path class="cls-45" d="M71.48,90.61c-.58-.51-.89-1.08-.67-1.86-.4-.17-.72-.08-1.12-.1-.06-.76.07-1.38.21-2.12.91,0,1.67-.26,2.66-.15-.1.8-.22,1.46-.14,2.33.45,0,1.19.1,1.58-.24.49-.43,0-1.58.43-2.01.51-.51,1.4-.26,2.11-.37.14,3.99-1.34,2.4-1.56,3.54-.13.67-.4,1.27-1.26,1.17l-.25,2.72c-.65-.08-1.09.11-1.66.22-.03-1.73.69-2.24-.32-3.12Z"/>
        <path class="cls-49" d="M21.46,75.82c.36.47.96,0,1.56.24-.14.55.12,1.1.19,1.51.1.63-.35,1.22-.17,1.93l-3.34.39c-.8.09-1.53-.01-2.38.23.01-1.4.1-2.57.26-3.97l3.87-.34Z"/>
        <path class="cls-10" d="M55.22,19.23l-.61,9.65c-.15,0-.3.16-.35-.23-.48.16-1.15.02-1.63.26l.54-9.68c.17-.15.45-.56.81-.43.33.12.79.6,1.23.43Z"/>
        <path class="cls-36" d="M42.86,5.63c-1.06.15-3.77,1.14-5.48,1.55l-2.44.59c-.84.2-1.62.95-2.54.56,1.08-1.3,2.69-1.46,4.21-2.03,2.46-.93,4.8-1.76,7.41-2.24,1.58-.29,4.98-1.54,6.36-.85-.03.68-2.35.95-2.66,1.02-1.65.4-3.15,1.15-4.85,1.4Z"/>
        <path class="cls-11" d="M59.37,35.58c-.63.21.26-4.22-.13-3.85l-5.11.55-.53,7.64-1.55,20.19c.68.41,1.39.04,2.05,0s3.11-.16,3.24-.42c.26-.51-.17-1.94.31-1.75-.12.58.1,1.29-.11,1.89-.11.33-2.49.48-3.13.54l-2.78.27.91-12.62,1.25-16.29,5.81-.62c-.06,1.09.12,2.03-.16,2.96-.16.54,0,1.04-.07,1.52Z"/>
        <path class="cls-43" d="M24.36,13.24c.15.21.08.57.47.79s-.33.48-.52.65c-1.41,1.28-2.88,2.28-4.6,3.17-.2.1-.39.38-.48.32l-.45-.31c-.51-.35-1.73.95-2.51,1.49l-1.79,1.25c0-.59-.19-1.38.31-1.88,1.39-1.4,3.26-2.04,4.97-2.97l4.61-2.52Z"/>
        <path class="cls-60" d="M37.94,23.09c0,.24-.03.51-.01.91l2.13-.26-.18,2.91c-.3-.17-.11-.6-.18-1.09-.7.16-1.44.31-2.14.35-.36-.06-1.05-.34-1.37-.63-.5-.46-.32-1.42-.22-2,.25-1.41.04-2.06.66-3.5.23.05.75-.19.92.16.09.18.04.62-.07.82-.18.31.24.53.24.82,0,.01-.26,1.5-.06,1.56.07.02.14-.15.26-.04Z"/>
        <path class="cls-13" d="M73.59,30.73c-.11-.16.04-.34-.07-.63l-5.6.67c-.6.07-.92.78-1.23,1.22l-4.82,6.86c-.93,1.32-1.79,2.64-3.03,3.77-.58-.82-.07-1.64.05-2.21-.05.56-.1,1.15.06,1.66l8.38-11.86,6.9-.78c.11.66-.43.98-.63,1.31Z"/>
        <path class="cls-32" d="M51.01,19.48c.04,1.13-.14,2.23-.33,3.54-.79.15-1.51.3-2.39.31l.24-3.51c.09-.3.52-.7.77-.85.86-.53,1.54.53,1.71.51Z"/>
        <path class="cls-3" d="M90.81,99.42c-.29.56-.05,1.19-.31,1.9-.09.23-.57.2-.81.1l.24-3.64c.02-.26.49-.2.65-.22.51-.05.62,1.09.81,1.14.29.08,1.36-2.19,1.73-1.06.35,1.06-.21,2.28-.12,3.51.02.22-.79.25-.84.02-.11-.55.13-.92-.01-1.34-.3.24-.46.4-.65.39-.31-.02-.44-.43-.69-.8Z"/>
        <path class="cls-26" d="M76.05,8.83c.18.66-3.61-.44-4.01-.55l-5.12-1.41c-1.38-.38-2.52-.93-3.66-1.46-.56-.27-2.77-.41-2.33-.92l6.81,1.93c2.86.81,5.62,1.55,8.32,2.42Z"/>
        <path class="cls-15" d="M82.39,100.68c.1.25.83.18.9-.17s.77-.42.89-.18c.21.38.06.82-.12,1-.56.54-2.4.52-2.64.11s-.27-2.68.21-3.3c.42-.54,2.27-.55,2.65-.21.25.23.24.54.24.72.02.41-.17.51-.56.51-.91.01-.08-.65-1.45-.34-.11.55-.36,1.29-.12,1.85Z"/>
        <path class="cls-39" d="M92.81,56.18c-.59-.11.31-3.96-.04-4.77l-10.84,1.16c-.29.03-.72-.1-.91-.36-.14-.19.16-.59.2-.85l.33-2.57c.05-.38-.09-.71.22-.79-.13.79.09,1.65-.11,2.45-.13.52-.19,1.01-.07,1.68l8.65-.9c1.03-.11,1.97-.16,2.95-.07l-.29,3.67c-.04.48-.09.92-.09,1.34Z"/>
        <path class="cls-27" d="M22.04,52.49c-.95-.51,2.46-.42,2.51-.66l1.12-4.33c-2.12.13-4.07.37-6.12.61-.53.06-1.02.09-1.62-.09.12-.77-.12-1.45.1-2.05.34-.92-.15-1.95.34-1.84-.09.71.08,1.76-.1,2.43-.07.25-.35,1.15.05,1.11l7.55-.75c-.17,1.63-.7,3.82-1.25,5.13-.44.28-1.19.32-1.58.23-.49-.11-.72.19-1,.22Z"/>
        <path class="cls-24" d="M82.67,38.47c-.08.71-.35,1.5-.09,2.32l8.06-.98-.17,3.73c-.42.39-.11-3.03-.02-3.22l-4.31.59c-1.24.17-2.49.27-3.81.28-.04-.23-.18-3.59.35-2.73Z"/>
        <path class="cls-5" d="M20.32,33.67c-.5-.03-1.47.08-1.99.18-.04-.61.16-2.75,1.3-2.36.21-.42-.03-.9.13-1.38.48.5.27,1.1.29,1.77s.41,1.22.27,1.79Z"/>
        <path class="cls-8" d="M40.48,83.01c.14-.73.06-1.51.12-2.28l.21-2.83.18-3.17c.04-.77.06-1.49.11-2.21.41-.38.11,2.76.1,2.87l-.21,3.21-.17,2.6c-.05.72.03,1.26-.33,1.82Z"/>
        <path class="cls-28" d="M45.76,69.4c-.6.05.19-3.14-.02-3.7-.68-.19-3.76.59-3.67,0,1.96-.05,1.77-.27,3.89-.2-.09.81.15,1.56-.09,2.26-.2.58-.06,1.1-.11,1.63Z"/>
        <path class="cls-37" d="M92.25,64.57c-.23-1.88.3-2.1.13-3.71-.81-.17-1.65.25-2.3-.21.77.02,1.47.05,2.47-.28.01.8.21,1.62-.05,2.35-.23.66.12,1.32-.26,1.85Z"/>
        <path class="cls-66" d="M55.09,69.79c-.35.29-.19-2.02-.09-2.4.22-.86.06-1.82.05-2.69-.56.02-1.03.21-1.13-.15.5-.06.92.03,1.57.02-.47,1.13.02,2.24-.31,3.32-.2.65-.04,1.3-.09,1.91Z"/>
        <path class="cls-4" d="M57.2,74.46c.14-1.05-.15-2.18.12-3.23.2-.78.05-1.49.1-2.21.35-.36.18,2.59.11,2.85-.3,1.09.15,2.8-.33,2.6Z"/>
        <path class="cls-25" d="M41.09,72.32c-.1-.17.1-.29.13-.46.23-.97-.13-2.02.15-2.97.19-.64.07-1.23.1-1.83.34-.29.2,2.01.09,2.4-.25.89.03,1.86-.12,2.81-.08.08-.28.03-.35.04Z"/>
        <path class="cls-47" d="M67.92,88.26c-.44-.29-.07-.86-.21-1.34-.4-.03-.72-.03-1.18,0-.14,1.19-.15,1.66-.39,2.71l.04-2.27c.29-.14.17-.37.19-.64h1.54s0,1.55,0,1.55Z"/>
        <path class="cls-59" d="M18.54,71.15c-.66-.08.41-2.31-.62-2.53-.52-.11-1.16.25-1.52-.19.73.05,1.46-.05,2.3-.17-.04,1.08-.23,1.97-.16,2.9Z"/>
        <path class="cls-12" d="M31.96,66.49c.71-.1,4.27-.14,4.69-.36.4.76-1.92.06-2.04.52-.07,0-3.16.17-2.65-.16Z"/>
        <path class="cls-52" d="M11.93,68.82c.44-.08.97.18,1.43-.16l2.6-.07c.09,0,.15-.27.24-.16,0,.08.04.27-.03.36-1.1-.18-4.07.58-4.24.03Z"/>
        <path class="cls-33" d="M23.21,77.57c-.07-.41-.33-.96-.19-1.51-.6-.23-1.19.24-1.56-.24.56.03,1.11.01,1.82-.22l-.07,1.97Z"/>
        <path class="cls-34" d="M26.54,90.97c-.38-.07-.98.23-1.19-.18.38-.04.89-.18,1.19.18Z"/>
        <g>
          <path class="cls-19" d="M20.12,100.39c.56.48,1.25.3,1.72.95,1.56,2.15,3.12.08,4.32,1.08.6.49,2.84.11,3.06-.22.12-.19.02-.67.15-.84.48-.62,1.52-.17,2,.33,3.1.78,2.69.11,5.57,0-.03-.26-.16-.37-.11-.47.2-.42,2.28.13,1.8.09l1.68.12c.59.04,1.38-.04,1.62-.58.11-.24.65-.08.94-.35.37-.33,1.04.44,1.5.44-.27,0,5.51-.57,4.88-.99.02-.34-.09-.9.48-.96.31-.03.9-.27,1.27-.15.71.24,1.26.46,2,.14.38-.16.63.59.89.67.7.22,2.2.19,3.07-.46.53-.4.4-1.01.44-1.62,1.13.18,2.23,1.85,3.36.27.3,0,.59.14.74-.17s.23-.45.03-.8c.37-.05.57.13.72.24,1,.74-.87.6.12,1.14.23.12.34-.12.64-.24.28-.12.53.38.75.4.38.03.69-.4,1.03-.44.51-.06.78-.02,1.09-.45.23-.32-.08-.49-.17-.92-.01-.32.91-.61,1.21-.36.76.63,1.26,1.4,2,1.91.96.67,1.2-1.69,1.47-2.15.13-.21.52-.25.77-.13.55.27.66,1.14,1.1,1.22l1.66.28c.19.18.31.4.57.41.31,0,.39-.18.52-.63.08-.29.82-.27.85.01.09.73.58.83,1.23.79.82,2.44-.09,1.23.02,3.11l-9.09.12-2.96.22c-2.85.21-14.5,2.12-17.14,2.93-2.26.69-4.42,1.23-6.74,1.32-.45.02-1.1-.02-1.52.36,4.89-.02,8.52-1.67,13.52-2.42l10.47-1.57c.98-.15,1.85-.41,2.81-.44l5.31-.19c1.76-.06,3.49-.04,5.31-.09l-.05,3c-.36.41-1.08-.17-1.19.71l-12.62,1.03c-2.03.17-3.96.48-5.98.83l-4.86.82-8.17,1.6c-5.3,1.04-10.52,1.55-15.92.91-2.93-.35-5.51-1.21-8.22-2.18l-1.91-.69c-.34-.12-1.41.08-1.35-.57l.6-6.98c.74-.18,2.08.07,2.73.63Z"/>
          <path class="cls-30" d="M34.07,106.15c-.67.61-1.56.33-2.48.36-3.1.09-6.1-.21-9-1.04-1.24-.36-2.35-1.19-2.91-2.55,4.53,1.83,9.22,3.56,14.4,3.23Z"/>
        </g>
        <g>
          <path class="cls-57" d="M46.93,49.19l1.17,8.94c-.7.17.44,2.12-.19,2.64.02-.02-4.45.43-5.12.57-.43-1.92-.34-3.69-.92-5.35-.04-.1-.06-.18-.19-.29-.08-.07-.15-.15-.2,0-.04.12.01.22,0,.29l-7.75.76c-.62,1.82-.96,3.54-1.75,5.07-.13.26-.51.55-.62.97-.54.08-1.04-.12-1.48.08-.64.29-1.31,0-1.98.1-.53.07-1.02.36-1.67.17l3.88-12.84,4.35-14.63c.08-.26.06-.9.38-1.18l9.61-1,2.12,15.48c.04.28.14.23.36.21Z"/>
          <path class="cls-11" d="M46.93,49.19c-.22.02-.32.07-.36-.21l-2.12-15.48-9.61,1c-.32.28-.3.92-.38,1.18l-4.35,14.63-3.88,12.84c.65.19,1.14-.1,1.67-.17.67-.09,1.34.2,1.98-.1.44-.2.94,0,1.48-.08.1-.42.48-.71.62-.97.02.31-.17,1.08-.57,1.14-1.96.28-3.71.45-5.84.64l4.12-13.67,4.76-15.99,10.14-1.13,2.03,14.69.3,1.69Z"/>
          <path class="cls-64" d="M48.09,58.13c.14,1.06.22,1.69.2,2.92-.62.02-1.09.07-1.65.12l-2.12.18c-.62.05-1.27.03-1.92.18-.3-1.94-.71-3.7-.74-5.54.58,1.66.49,3.43.92,5.35.67-.15,5.14-.59,5.12-.57.62-.52-.51-2.46.19-2.64Z"/>
          <path class="cls-64" d="M41.87,55.99h-.39c.01-.07-.03-.17,0-.29.05-.16.12-.08.2,0,.13.11.15.19.19.29Z"/>
          <path class="cls-48" d="M35.89,48.6l2.88-9.5c.42-1.3,1.03,3.92,1.05,4.03l.4,2.46.6,3.84c.08.49.09.97-.04,1.57l-5.43.49c.21-1.16.28-2.06.54-2.89Z"/>
          <path class="cls-14" d="M35.89,48.6c-.25.84-.32,1.73-.54,2.89l5.43-.49c.14-.6.12-1.08.04-1.57l-.6-3.84-.4-2.46c-.02-.11-.63-5.33-1.05-4.03-.41-.17.08-.17.34-.44.38.24.43,1,.51,1.51l1.3,8.05c.17,1.07.39,2.14.02,3.18l-4.9.47c-.37.04-1-.02-.94-.52.02-.16.59-3.33.8-2.73Z"/>
        </g>
        <g>
          <path class="cls-16" d="M64.97,67.27c.35.61.19-3.54.51-3.75l2.64-.37c2.25-.44,4.59-.51,6.97-.62l2.61,2.75c-.26,1.94-.06,3.81-.58,5.7-.39,1.08-1.75,1.65-2.36,2.64.67.86,1.44,1.59,2.31,2.43l-.51,5.55c-.05.58-3.92.69-4.57.56l.42-5.81c-.32-.36-.7-.81-1.11-1.11-.94-.16-1.92.03-3,.21l-.59,7.3c-1.34.18-2.54.31-4.02.26l1.27-15.76Z"/>
          <path class="cls-56" d="M68.12,63.15l-2.64.37c-.31.2-.16,4.36-.51,3.75.09-1.66-.07-2.27.21-4.09l2.93-.03Z"/>
          <path class="cls-2" d="M72.69,71.08l-4.14.43.4-4.4c1.3-.29,2.55-.31,4.03-.42l-.29,4.39Z"/>
        </g>
        <g>
          <path class="cls-53" d="M32.54,97.75c-1.31-.03-2.93.63-3.54-.04-.25-.27-.35-.59-.31-1.1l.46-5.24c.07-.75.47-1.21,1.27-1.18,1.07.04,2.19-.44,3.29-.3.89.11.86,1.19.81,1.84l-.3,4.36c-.06.88-.69,1.68-1.68,1.66Z"/>
          <path class="cls-40" d="M32.73,95.87c-.71.37-1.49.35-2.37.34.17-1.44.09-2.71.47-4.11.33-.49,1.61-.38,2.07-.27l-.17,4.04Z"/>
        </g>
        <g>
          <path class="cls-38" d="M54.88,87.86c.65.03,1.11.08,1.57-.18.72-.42,1.75-.17,2.65-.1l.14,6.92c-.34.37-1.1.4-1.6.36l-.02-2.12c-.71,0-1.35-.07-2.04.07l-.35,2.25c-.63.09-.99.34-1.53.15l.46-4.42c-.04.42.59-4.02.73-2.92Z"/>
          <path class="cls-6" d="M56.45,87.68c-.46.27-.91.22-1.57.18-1.07,0,2.68-.56,1.57-.18Z"/>
          <path class="cls-1" d="M57.42,91.13c-.45.06-.9.06-1.36.05-.31.23-.21-1.98.5-1.93.19.01.79-.13.81.17.04.62.22,1.22.05,1.71Z"/>
          <path class="cls-63" d="M57.42,91.13c-.17.48-1.15.33-1.36.05.46,0,.91,0,1.36-.05Z"/>
        </g>
        <g>
          <path class="cls-54" d="M47.93,93.84l-.3,2.13c-.56.09-1.03.14-1.7.09l.64-7.29c1.26-.28,2.69-.41,4.06-.43.37,0,1.06.6,1.06.94-.26,2.07.2,4.23-2.4,4.45l-1.36.12Z"/>
          <path class="cls-9" d="M49.66,91.84c-.44.25-1.09.13-1.66.35-.01-.54-.07-1.22.21-1.68.26-.33,1.34-.46,1.67-.14.26.25.09,1.29-.22,1.47Z"/>
        </g>
        <g>
          <path class="cls-41" d="M88.25,101.29c-.27.37-2.57.75-2.63-.41-.04-.81-.06-1.69.07-2.5.18-1.14,2.73-.87,2.87-.61.4.71-.01,3.11-.31,3.52Z"/>
          <path class="cls-46" d="M87.49,100.59c-.09.23-.88.18-1-.03l.14-1.93c.32-.16.81-.18,1.12-.09,0,.7,0,1.35-.26,2.05Z"/>
        </g>
      </g>
    </g>
  </g>
</svg>